<svg width="514" height="527" viewBox="0 0 514 527" fill="none" xmlns="http://www.w3.org/2000/svg">
<path opacity="0.0144828" d="M65.848 122.854C68.221 120.026 71.823 118.24 76.6424 117.517C81.4701 116.793 87.4562 117.148 94.4776 118.551C108.52 121.358 126.494 128.316 147.195 138.847C188.582 159.901 240.665 195.135 293.615 239.565C346.565 283.995 390.307 329.169 418.229 366.271C432.195 384.829 442.168 401.322 447.37 414.663C449.972 421.335 451.36 427.168 451.485 432.048C451.61 436.92 450.477 440.777 448.104 443.605C445.731 446.433 442.129 448.219 437.31 448.942C432.482 449.666 426.496 449.312 419.474 447.908C405.433 445.102 387.458 438.144 366.757 427.613C325.37 406.558 273.287 371.324 220.337 326.894C167.387 282.464 123.645 237.291 95.7233 200.189C81.7576 181.631 71.7842 165.137 66.5819 151.796C63.9805 145.125 62.5919 139.292 62.4666 134.412C62.3416 129.54 63.4749 125.682 65.848 122.854Z" stroke="white" stroke-width="2"/>
<path opacity="0.0144828" d="M80.5528 104.807C83.1633 102.197 86.9073 100.732 91.7713 100.432C96.6437 100.131 102.576 101.006 109.449 103.016C123.192 107.036 140.492 115.534 160.197 127.829C199.591 152.411 248.405 192.05 297.281 240.926C346.157 289.801 385.796 338.615 410.378 378.01C422.673 397.714 431.171 415.014 435.19 428.758C437.2 435.63 438.075 441.563 437.775 446.435C437.475 451.299 436.01 455.043 433.399 457.654C430.789 460.264 427.045 461.729 422.181 462.029C417.308 462.33 411.376 461.455 404.503 459.445C390.76 455.425 373.46 446.927 353.755 434.632C314.361 410.051 265.547 370.412 216.671 321.536C167.795 272.66 128.156 223.846 103.574 184.451C91.2791 164.747 82.7812 147.447 78.7614 133.703C76.7514 126.831 75.8765 120.898 76.177 116.026C76.4771 111.162 77.9423 107.418 80.5528 104.807Z" stroke="white" stroke-width="2"/>
<path opacity="0.0144828" d="M96.6005 88.1023C99.4286 85.7293 103.286 84.596 108.158 84.721C113.038 84.8463 118.871 86.2349 125.542 88.8363C138.884 94.0386 155.377 104.012 173.935 117.978C211.037 145.899 256.21 189.642 300.641 242.592C345.071 295.541 380.304 347.624 401.359 389.011C411.89 409.712 418.848 427.687 421.654 441.729C423.058 448.75 423.412 454.736 422.688 459.564C421.966 464.383 420.18 467.985 417.352 470.359C414.523 472.732 410.666 473.865 405.794 473.74C400.914 473.615 395.081 472.226 388.41 469.625C375.068 464.422 358.575 454.449 340.017 440.483C302.915 412.562 257.742 368.819 213.311 315.869C168.881 262.92 133.648 210.837 112.593 169.45C102.062 148.749 95.1042 130.774 92.2975 116.732C90.8941 109.711 90.5396 103.724 91.2636 98.8968C91.9865 94.0774 93.7724 90.4754 96.6005 88.1023Z" stroke="white" stroke-width="2"/>
<path opacity="0.0144828" d="M113.869 72.8518C116.893 70.7343 120.834 69.9415 125.676 70.4907C130.527 71.0407 136.217 72.9325 142.636 76.1054C155.473 82.4507 171.035 93.8236 188.305 109.354C222.832 140.403 264.021 187.916 303.668 244.536C343.314 301.157 373.874 356.113 391.241 399.177C399.928 420.717 405.293 439.23 406.865 453.463C407.651 460.58 407.483 466.574 406.341 471.32C405.2 476.059 403.107 479.491 400.083 481.609C397.059 483.726 393.118 484.519 388.275 483.97C383.425 483.42 377.734 481.528 371.315 478.355C358.478 472.01 342.917 460.637 325.647 445.107C291.12 414.058 249.93 366.545 210.284 309.924C170.638 253.304 140.078 198.348 122.71 155.283C114.024 133.743 108.659 115.231 107.087 100.998C106.301 93.8805 106.469 87.8863 107.611 83.1401C108.751 78.4021 110.844 74.9694 113.869 72.8518Z" stroke="white" stroke-width="2"/>
<path opacity="0.0144828" d="M132.226 59.1572C135.423 57.3113 139.419 56.8651 144.195 57.8341C148.979 58.8049 154.483 61.1854 160.601 64.9057C172.836 72.3457 187.347 85.0316 203.197 102.008C234.887 135.948 271.779 186.87 306.339 246.731C340.9 306.591 366.554 364.001 380.102 408.416C386.879 430.631 390.609 449.54 390.935 463.856C391.098 471.015 390.408 476.972 388.856 481.6C387.307 486.221 384.923 489.458 381.726 491.304C378.529 493.15 374.533 493.596 369.757 492.627C364.973 491.656 359.469 489.276 353.351 485.555C341.116 478.115 326.605 465.43 310.754 448.453C279.064 414.513 242.173 363.591 207.612 303.731C173.052 243.87 147.398 186.46 133.85 142.046C127.073 119.831 123.343 100.921 123.017 86.6047C122.854 79.4463 123.544 73.4895 125.096 68.8609C126.644 64.2403 129.029 61.0031 132.226 59.1572Z" stroke="white" stroke-width="2"/>
<path opacity="0.0144828" d="M151.533 47.1067C154.879 45.5465 158.898 45.4502 163.571 46.8318C168.253 48.2158 173.528 51.067 179.299 55.3063C190.839 63.7843 204.189 77.6867 218.5 95.9796C247.111 132.553 279.424 186.496 308.636 249.141C337.847 311.786 358.4 371.214 368.026 416.64C372.84 439.361 374.909 458.524 373.985 472.814C373.524 479.959 372.317 485.833 370.368 490.309C368.422 494.777 365.765 497.794 362.419 499.354C359.073 500.915 355.054 501.011 350.381 499.629C345.699 498.245 340.424 495.394 334.653 491.155C323.113 482.677 309.763 468.774 295.452 450.481C266.841 413.908 234.528 359.965 205.316 297.32C176.105 234.675 155.552 175.247 145.926 129.821C141.112 107.1 139.043 87.937 139.966 73.6471C140.428 66.5017 141.635 60.6278 143.584 56.152C145.529 51.684 148.187 48.6669 151.533 47.1067Z" stroke="white" stroke-width="2"/>
<path opacity="0.0144828" d="M171.642 36.7765C175.111 35.5138 179.123 35.7682 183.659 37.5519C188.201 39.3386 193.208 42.6387 198.587 47.3649C209.345 56.8164 221.432 71.8294 234.094 91.3C259.409 130.227 286.898 186.782 310.538 251.735C334.179 316.687 349.475 377.68 355.104 423.772C357.92 446.826 358.311 466.097 356.145 480.252C355.063 487.33 353.348 493.076 351.017 497.365C348.689 501.646 345.779 504.42 342.31 505.683C338.841 506.946 334.828 506.691 330.293 504.908C325.75 503.121 320.743 499.821 315.364 495.095C304.607 485.643 292.519 470.63 279.857 451.16C254.543 412.232 227.054 355.677 203.413 290.725C179.773 225.773 164.477 164.78 158.848 118.688C156.032 95.6333 155.641 76.3628 157.806 62.2079C158.889 55.1299 160.603 49.3835 162.935 45.0946C165.263 40.8131 168.173 38.0392 171.642 36.7765Z" stroke="white" stroke-width="2"/>
<path opacity="0.0144828" d="M192.401 28.2326C195.967 27.2771 199.942 27.8802 204.304 30.0523C208.674 32.2282 213.374 35.9522 218.321 41.1291C228.213 51.4823 238.947 67.4916 249.863 87.9917C271.689 128.977 294.144 187.713 312.034 254.478C329.923 321.244 339.845 383.338 341.436 429.745C342.232 452.957 340.941 472.188 337.55 486.101C335.855 493.058 333.647 498.633 330.95 502.702C328.258 506.764 325.117 509.274 321.551 510.23C317.985 511.185 314.01 510.582 309.648 508.41C305.278 506.234 300.578 502.51 295.631 497.333C285.739 486.98 275.005 470.971 264.088 450.47C242.263 409.485 219.808 350.749 201.918 283.984C184.028 217.218 174.107 155.124 172.516 108.717C171.72 85.5049 173.011 66.2738 176.401 52.3614C178.097 45.4047 180.305 39.8296 183.002 35.7602C185.694 31.6979 188.835 29.1881 192.401 28.2326Z" stroke="white" stroke-width="2"/>
<path opacity="0.0144828" d="M213.651 21.5216C217.286 20.8805 221.194 21.8278 225.35 24.3719C229.514 26.9203 233.871 31.0397 238.348 36.6281C247.301 47.8041 256.598 64.688 265.686 86.0615C283.857 128.793 301.107 189.262 313.11 257.333C325.113 325.404 329.584 388.126 327.125 434.496C325.894 457.689 322.933 476.734 318.342 490.298C316.047 497.081 313.361 502.442 310.32 506.261C307.284 510.073 303.937 512.3 300.301 512.941C296.665 513.582 292.758 512.634 288.602 510.09C284.438 507.542 280.08 503.423 275.604 497.834C266.651 486.658 257.354 469.774 248.265 448.401C230.095 405.669 212.844 345.2 200.842 277.129C188.839 209.058 184.367 146.336 186.827 99.9666C188.057 76.7736 191.019 57.7281 195.609 44.1641C197.905 37.3816 200.591 32.0203 203.632 28.2014C206.667 24.3892 210.015 22.1627 213.651 21.5216Z" stroke="white" stroke-width="2"/>
<path opacity="0.0144828" d="M235.231 16.6806C238.908 16.3589 242.718 17.643 246.637 20.5397C250.563 23.4414 254.545 27.9249 258.517 33.8822C266.462 45.7959 274.252 63.4259 281.443 85.5102C295.82 129.663 307.735 191.405 313.759 260.263C319.783 329.121 318.771 391.994 312.28 437.973C309.033 460.971 304.422 479.686 298.667 492.798C295.79 499.354 292.647 504.461 289.284 508.001C285.928 511.534 282.399 513.46 278.721 513.782C275.044 514.104 271.234 512.819 267.315 509.923C263.389 507.021 259.407 502.537 255.434 496.58C247.49 484.667 239.7 467.037 232.509 444.952C218.131 400.799 206.217 339.057 200.193 270.199C194.169 201.341 195.18 138.468 201.672 92.4892C204.919 69.4917 209.529 50.7768 215.285 37.6646C218.162 31.108 221.305 26.0011 224.667 22.4618C228.024 18.9286 231.553 17.0024 235.231 16.6806Z" stroke="white" stroke-width="2"/>
<path opacity="0.0144828" d="M256.976 13.7305C260.668 13.7305 264.351 15.3418 268.003 18.569C271.661 21.8018 275.237 26.6153 278.675 32.8962C285.551 45.4569 291.775 63.6988 297.014 86.3258C307.488 131.564 313.976 194.11 313.976 263.23C313.976 332.351 307.488 394.897 297.014 440.135C291.775 462.762 285.551 481.004 278.675 493.565C275.237 499.846 271.661 504.659 268.003 507.892C264.351 511.119 260.668 512.73 256.976 512.73C253.284 512.73 249.601 511.119 245.949 507.892C242.291 504.659 238.715 499.846 235.277 493.565C228.401 481.004 222.177 462.762 216.938 440.135C206.464 394.897 199.976 332.351 199.976 263.23C199.976 194.11 206.464 131.564 216.938 86.3258C222.177 63.6988 228.401 45.4569 235.277 32.8962C238.715 26.6153 242.291 21.8018 245.949 18.569C249.601 15.3418 253.284 13.7305 256.976 13.7305Z" stroke="white" stroke-width="2"/>
<path opacity="0.0144828" d="M278.721 12.6794C282.399 13.0011 285.928 14.9274 289.284 18.4606C292.647 21.9998 295.79 27.1067 298.667 33.6633C304.422 46.7756 309.033 65.4905 312.28 88.488C318.771 134.467 319.783 197.34 313.759 266.198C307.735 335.056 295.82 396.798 281.443 440.951C274.252 463.035 266.462 480.665 258.517 492.579C254.545 498.536 250.563 503.02 246.637 505.921C242.718 508.818 238.908 510.102 235.231 509.781C231.553 509.459 228.024 507.532 224.667 503.999C221.305 500.46 218.162 495.353 215.285 488.797C209.529 475.684 204.919 456.969 201.672 433.972C195.18 387.993 194.169 325.12 200.193 256.262C206.217 187.404 218.131 125.662 232.509 81.5089C239.7 59.4246 247.49 41.7946 255.434 29.8809C259.407 23.9236 263.389 19.4401 267.315 16.5385C271.234 13.6418 275.044 12.3576 278.721 12.6794Z" stroke="white" stroke-width="2"/>
<path opacity="0.0144828" d="M300.301 13.5202C303.937 14.1613 307.285 16.3878 310.32 20.2001C313.361 24.0189 316.047 29.3803 318.343 36.1628C322.933 49.7267 325.895 68.7722 327.125 91.9652C329.585 138.335 325.113 201.057 313.11 269.128C301.107 337.199 283.857 397.668 265.687 440.399C256.598 461.773 247.301 478.657 238.348 489.833C233.872 495.421 229.514 499.541 225.35 502.089C221.194 504.633 217.286 505.58 213.651 504.939C210.015 504.298 206.667 502.072 203.632 498.259C200.591 494.441 197.905 489.079 195.609 482.297C191.019 468.733 188.057 449.687 186.827 426.494C184.367 380.125 188.839 317.403 200.842 249.332C212.845 181.261 230.095 120.792 248.265 78.0602C257.354 56.6867 266.651 39.8027 275.604 28.6268C280.08 23.0384 284.438 18.919 288.602 16.3705C292.758 13.8264 296.666 12.8792 300.301 13.5202Z" stroke="white" stroke-width="2"/>
<path opacity="0.0144828" d="M321.551 16.2322C325.117 17.1877 328.258 19.6975 330.95 23.7598C333.647 27.8292 335.855 33.4042 337.55 40.3609C340.941 54.2733 342.232 73.5045 341.436 96.7165C339.845 143.124 329.924 205.218 312.034 271.983C294.144 338.749 271.689 397.484 249.863 438.47C238.947 458.97 228.213 474.98 218.321 485.333C213.374 490.51 208.674 494.234 204.304 496.409C199.942 498.582 195.967 499.185 192.401 498.229C188.835 497.274 185.694 494.764 183.002 490.702C180.305 486.632 178.097 481.057 176.401 474.1C173.011 460.188 171.72 440.957 172.516 417.745C174.107 371.337 184.028 309.244 201.918 242.478C219.808 175.712 242.263 116.977 264.089 75.9913C275.005 55.4912 285.739 39.4818 295.631 29.1287C300.578 23.9517 305.278 20.2278 309.648 18.0519C314.01 15.8798 317.985 15.2767 321.551 16.2322Z" stroke="white" stroke-width="2"/>
<path opacity="0.0144828" d="M342.31 20.777C345.779 22.0397 348.689 24.8137 351.017 29.0951C353.348 33.384 355.063 39.1304 356.145 46.2084C358.311 60.3633 357.92 79.6338 355.104 102.688C349.475 148.78 334.179 209.773 310.538 274.725C286.898 339.678 259.409 396.233 234.094 435.16C221.432 454.631 209.345 469.644 198.587 479.095C193.208 483.821 188.202 487.121 183.659 488.908C179.123 490.692 175.111 490.946 171.642 489.684C168.173 488.421 165.263 485.647 162.935 481.365C160.603 477.077 158.889 471.33 157.807 464.252C155.641 450.097 156.032 430.827 158.848 407.773C164.477 361.68 179.773 300.688 203.413 235.735C227.054 170.783 254.543 114.228 279.858 75.3005C292.519 55.8299 304.607 40.8169 315.364 31.3654C320.744 26.6392 325.75 23.3391 330.293 21.5524C334.828 19.7687 338.841 19.5143 342.31 20.777Z" stroke="white" stroke-width="2"/>
<path opacity="0.0144828" d="M362.419 27.107C365.765 28.6672 368.422 31.6843 370.368 36.1523C372.317 40.6281 373.524 46.502 373.985 53.6474C374.909 67.9372 372.84 87.1003 368.026 109.821C358.4 155.248 337.847 214.675 308.635 277.32C279.424 339.965 247.111 393.909 218.499 430.482C204.189 448.775 190.839 462.677 179.298 471.155C173.528 475.394 168.253 478.245 163.571 479.629C158.898 481.011 154.879 480.915 151.533 479.355C148.187 477.794 145.529 474.777 143.584 470.309C141.635 465.833 140.428 459.96 139.966 452.814C139.043 438.524 141.112 419.361 145.926 396.64C155.552 351.214 176.105 291.786 205.316 229.142C234.528 166.497 266.841 112.553 295.452 75.9799C309.763 57.687 323.113 43.7846 334.653 35.3066C340.424 31.0673 345.699 28.2161 350.381 26.8321C355.054 25.4505 359.073 25.5468 362.419 27.107Z" stroke="white" stroke-width="2"/>
<path opacity="0.0144828" d="M381.726 35.1572C384.923 37.0031 387.307 40.2403 388.856 44.8609C390.408 49.4895 391.098 55.4463 390.935 62.6047C390.609 76.9207 386.879 95.8306 380.102 118.046C366.554 162.46 340.9 219.87 306.339 279.731C271.779 339.591 234.887 390.513 203.197 424.453C187.347 441.43 172.836 454.115 160.601 461.555C154.483 465.276 148.979 467.656 144.195 468.627C139.419 469.596 135.423 469.15 132.226 467.304C129.029 465.458 126.644 462.221 125.096 457.6C123.544 452.972 122.854 447.015 123.017 439.856C123.343 425.54 127.073 406.631 133.85 384.416C147.398 340.001 173.052 282.591 207.612 222.731C242.173 162.87 279.064 111.948 310.754 78.0076C326.605 61.0316 341.116 48.3457 353.351 40.9057C359.469 37.1854 364.973 34.8049 369.757 33.8341C374.533 32.8651 378.529 33.3113 381.726 35.1572Z" stroke="white" stroke-width="2"/>
<path opacity="0.0144828" d="M400.083 44.8525C403.107 46.9701 405.2 50.4027 406.341 55.1408C407.483 59.887 407.651 65.8812 406.865 72.9982C405.293 87.2313 399.928 105.744 391.241 127.284C373.874 170.349 343.314 225.304 303.668 281.925C264.021 338.545 222.832 386.059 188.305 417.108C171.035 432.638 155.473 444.011 142.636 450.356C136.217 453.529 130.527 455.421 125.676 455.971C120.834 456.52 116.893 455.727 113.869 453.609C110.844 451.492 108.751 448.059 107.611 443.321C106.469 438.575 106.301 432.581 107.087 425.464C108.659 411.231 114.024 392.718 122.71 371.178C140.078 328.113 170.638 273.158 210.284 216.537C249.93 159.917 291.12 112.403 325.647 81.3543C342.917 65.8243 358.478 54.4514 371.315 48.1061C377.734 44.9332 383.425 43.0414 388.275 42.4913C393.118 41.9422 397.059 42.735 400.083 44.8525Z" stroke="white" stroke-width="2"/>
<path opacity="0.0144828" d="M417.351 56.1022C420.18 58.4753 421.965 62.0773 422.688 66.8967C423.412 71.7244 423.058 77.7104 421.654 84.7319C418.848 98.7738 411.89 116.749 401.359 137.449C380.304 178.836 345.071 230.92 300.641 283.869C256.21 336.819 211.037 380.561 173.935 408.483C155.377 422.449 138.884 432.422 125.542 437.625C118.871 440.226 113.038 441.615 108.158 441.74C103.286 441.865 99.4285 440.731 96.6005 438.358C93.7724 435.985 91.9865 432.383 91.2636 427.564C90.5395 422.736 90.8941 416.75 92.2975 409.729C95.1041 395.687 102.062 377.712 112.593 357.011C133.648 315.624 168.881 263.541 213.311 210.591C257.742 157.642 302.915 113.899 340.017 85.9776C358.575 72.0118 375.068 62.0385 388.41 56.8361C395.081 54.2348 400.914 52.8461 405.794 52.7209C410.666 52.5959 414.523 53.7292 417.351 56.1022Z" stroke="white" stroke-width="2"/>
<path opacity="0.0144828" d="M433.399 68.8074C436.01 71.4179 437.475 75.1619 437.775 80.0259C438.075 84.8983 437.2 90.8307 435.19 97.7032C431.171 111.447 422.673 128.747 410.378 148.451C385.796 187.846 346.157 236.66 297.281 285.536C248.405 334.412 199.591 374.051 160.197 398.632C140.492 410.927 123.192 419.425 109.449 423.445C102.576 425.455 96.6437 426.33 91.7713 426.029C86.9073 425.729 83.1633 424.264 80.5528 421.654C77.9423 419.043 76.4771 415.299 76.1771 410.435C75.8765 405.563 76.7514 399.63 78.7615 392.758C82.7812 379.014 91.2791 361.714 103.574 342.01C128.156 302.615 167.795 253.801 216.671 204.925C265.547 156.05 314.361 116.411 353.755 91.829C373.46 79.5338 390.76 71.0358 404.503 67.0161C411.376 65.006 417.308 64.1311 422.181 64.4317C427.045 64.7317 430.789 66.1969 433.399 68.8074Z" stroke="white" stroke-width="2"/>
<path opacity="0.0144828" d="M448.104 82.8551C450.477 85.6832 451.61 89.5406 451.485 94.4123C451.36 99.2924 449.972 105.126 447.37 111.797C442.168 125.138 432.194 141.632 418.229 160.189C390.307 197.292 346.565 242.465 293.615 286.895C240.665 331.325 188.582 366.559 147.195 387.614C126.494 398.145 108.519 405.102 94.4776 407.909C87.4561 409.313 81.47 409.667 76.6423 408.943C71.823 408.22 68.2209 406.434 65.8479 403.606C63.4749 400.778 62.3416 396.921 62.4666 392.049C62.5918 387.169 63.9805 381.335 66.5818 374.664C71.7841 361.323 81.7575 344.83 95.7232 326.272C123.645 289.17 167.387 243.996 220.337 199.566C273.287 155.136 325.37 119.902 366.757 98.8476C387.458 88.3166 405.433 81.3588 419.474 78.5522C426.496 77.1487 432.482 76.7942 437.31 77.5183C442.129 78.2411 445.731 80.027 448.104 82.8551Z" stroke="white" stroke-width="2"/>
<path opacity="0.0144828" d="M461.354 98.123C463.472 101.147 464.265 105.089 463.716 109.931C463.166 114.781 461.274 120.472 458.101 126.891C451.756 139.728 440.383 155.289 424.853 172.559C393.804 207.087 346.29 248.276 289.67 287.922C233.049 327.568 178.094 358.128 135.029 375.496C113.489 384.183 94.9763 389.547 80.7433 391.119C73.6262 391.906 67.632 391.737 62.8858 390.595C58.1478 389.455 54.7151 387.362 52.5976 384.338C50.48 381.313 49.6873 377.372 50.2364 372.53C50.7865 367.679 52.6783 361.989 55.8511 355.57C62.1964 342.733 73.5693 327.171 89.0993 309.901C120.148 275.374 167.662 234.185 224.282 194.539C280.903 154.892 335.858 124.332 378.923 106.965C400.463 98.278 418.976 92.9133 433.209 91.3412C440.326 90.555 446.32 90.7236 451.066 91.8656C455.804 93.0058 459.237 95.0988 461.354 98.123Z" stroke="white" stroke-width="2"/>
<path opacity="0.0144828" d="M473.049 114.48C474.895 117.678 475.341 121.673 474.372 126.449C473.402 131.233 471.021 136.737 467.301 142.855C459.861 155.09 447.175 169.601 430.199 185.452C396.259 217.142 345.336 254.033 285.476 288.594C225.616 323.154 168.205 348.809 123.791 362.357C101.576 369.133 82.6661 372.864 68.3502 373.19C61.1917 373.352 55.235 372.662 50.6064 371.111C45.9858 369.562 42.7485 367.178 40.9026 363.98C39.0567 360.783 38.6105 356.788 39.5796 352.012C40.5503 347.228 42.9309 341.724 46.6511 335.606C54.0911 323.371 66.777 308.859 83.7531 293.009C117.693 261.319 168.616 224.427 228.476 189.867C288.336 155.307 345.747 129.652 390.161 116.104C412.376 109.328 431.286 105.597 445.602 105.271C452.76 105.109 458.717 105.799 463.346 107.35C467.966 108.899 471.203 111.283 473.049 114.48Z" stroke="white" stroke-width="2"/>
<path opacity="0.0144828" d="M483.1 131.787C484.66 135.133 484.756 139.152 483.375 143.826C481.991 148.507 479.139 153.782 474.9 159.553C466.422 171.093 452.52 184.443 434.227 198.754C397.654 227.365 343.71 259.678 281.065 288.89C218.42 318.102 158.993 338.655 113.567 348.28C90.8455 353.095 71.6824 355.163 57.3926 354.24C50.2471 353.778 44.3732 352.571 39.8975 350.622C35.4294 348.677 32.4123 346.019 30.8521 342.674C29.2919 339.328 29.1956 335.308 30.5772 330.635C31.9612 325.954 34.8124 320.678 39.0517 314.908C47.5298 303.368 61.4321 290.017 79.7251 275.707C116.298 247.095 170.242 214.782 232.887 185.571C295.532 156.359 354.959 135.806 400.385 126.18C423.106 121.366 442.269 119.297 456.559 120.221C463.705 120.682 469.579 121.889 474.054 123.838C478.522 125.784 481.54 128.441 483.1 131.787Z" stroke="white" stroke-width="2"/>
<path opacity="0.0144828" d="M491.429 149.896C492.692 153.366 492.438 157.378 490.654 161.913C488.867 166.456 485.567 171.463 480.841 176.842C471.389 187.599 456.376 199.687 436.906 212.349C397.978 237.664 341.423 265.152 276.471 288.793C211.519 312.434 150.526 327.729 104.434 333.359C81.3794 336.175 62.1089 336.565 47.954 334.4C40.876 333.317 35.1296 331.603 30.8407 329.271C26.5593 326.944 23.7853 324.034 22.5226 320.564C21.2599 317.095 21.5143 313.083 23.298 308.548C25.0847 304.005 28.3848 298.998 33.111 293.619C42.5625 282.862 57.5755 270.774 77.0461 258.112C115.973 232.797 172.528 205.309 237.481 181.668C302.433 158.027 363.426 142.732 409.518 137.102C432.572 134.286 451.843 133.896 465.998 136.061C473.076 137.144 478.822 138.858 483.111 141.189C487.393 143.517 490.167 146.427 491.429 149.896Z" stroke="white" stroke-width="2"/>
<path opacity="0.0144828" d="M497.974 168.655C498.93 172.221 498.327 176.196 496.155 180.559C493.979 184.928 490.255 189.629 485.078 194.575C474.725 204.468 458.715 215.201 438.215 226.118C397.23 247.944 338.494 270.398 271.729 288.288C204.963 306.178 142.869 316.099 96.4617 317.691C73.2498 318.486 54.0186 317.196 40.1062 313.805C33.1495 312.11 27.5744 309.901 23.5051 307.205C19.4427 304.513 16.9329 301.372 15.9774 297.806C15.0219 294.24 15.625 290.265 17.7972 285.903C19.9731 281.533 23.697 276.832 28.874 271.886C39.2271 261.993 55.2365 251.26 75.7365 240.343C116.722 218.517 175.458 196.063 242.223 178.173C308.989 160.283 371.083 150.362 417.49 148.771C440.702 147.975 459.933 149.265 473.846 152.656C480.802 154.351 486.377 156.56 490.447 159.256C494.509 161.948 497.019 165.089 497.974 168.655Z" stroke="white" stroke-width="2"/>
<path opacity="0.0144828" d="M502.685 187.905C503.327 191.541 502.379 195.448 499.835 199.605C497.287 203.768 493.167 208.126 487.579 212.603C476.403 221.555 459.519 230.852 438.146 239.941C395.414 258.111 334.945 275.362 266.874 287.364C198.803 299.367 136.081 303.839 89.7113 301.379C66.5183 300.149 47.4728 297.187 33.9089 292.597C27.1264 290.302 21.765 287.616 17.9462 284.575C14.1339 281.539 11.9074 278.191 11.2664 274.556C10.6253 270.92 11.5726 267.013 14.1166 262.856C16.6651 258.692 20.7845 254.335 26.3729 249.858C37.5488 240.905 54.4328 231.608 75.8063 222.52C118.538 204.349 179.007 187.099 247.078 175.096C315.149 163.094 377.871 158.622 424.24 161.081C447.433 162.312 466.479 165.273 480.043 169.864C486.825 172.159 492.187 174.845 496.006 177.886C499.818 180.922 502.044 184.269 502.685 187.905Z" stroke="white" stroke-width="2"/>
<path opacity="0.0144828" d="M505.527 207.486C505.848 211.163 504.564 214.973 501.667 218.892C498.766 222.818 494.282 226.8 488.325 230.772C476.411 238.717 458.781 246.507 436.697 253.698C392.544 268.075 330.802 279.99 261.944 286.014C193.086 292.038 130.213 291.026 84.234 284.535C61.2365 281.288 42.5216 276.677 29.4093 270.922C22.8527 268.045 17.7458 264.902 14.2066 261.539C10.6734 258.183 8.74713 254.654 8.42537 250.976C8.10361 247.299 9.38782 243.489 12.2845 239.57C15.1861 235.644 19.6697 231.662 25.627 227.689C37.5406 219.745 55.1706 211.955 77.2549 204.764C121.408 190.386 183.15 178.472 252.008 172.448C320.866 166.424 383.739 167.435 429.718 173.927C452.715 177.174 471.43 181.784 484.543 187.54C491.099 190.417 496.206 193.56 499.745 196.922C503.279 200.279 505.205 203.808 505.527 207.486Z" stroke="white" stroke-width="2"/>
<path d="M506.476 227.23C506.476 230.922 504.865 234.606 501.637 238.257C498.405 241.915 493.591 245.491 487.31 248.93C474.749 255.805 456.508 262.029 433.881 267.268C388.643 277.743 326.097 284.23 256.976 284.23C187.855 284.23 125.309 277.743 80.0713 267.268C57.4443 262.029 39.2024 255.805 26.6417 248.93C20.3608 245.491 15.5473 241.915 12.3145 238.257C9.08732 234.606 7.47595 230.922 7.47595 227.23C7.47595 223.539 9.08732 219.855 12.3145 216.204C15.5473 212.546 20.3608 208.97 26.6417 205.531C39.2024 198.655 57.4443 192.431 80.0713 187.193C125.309 176.718 187.855 170.23 256.976 170.23C326.097 170.23 388.643 176.718 433.881 187.193C456.508 192.431 474.749 198.655 487.31 205.531C493.591 208.97 498.405 212.546 501.637 216.204C504.865 219.855 506.476 223.539 506.476 227.23Z" stroke="white" opacity="0.0144828" stroke-width="2"/>
</svg>
