<svg xmlns="http://www.w3.org/2000/svg" xmlns:xlink="http://www.w3.org/1999/xlink" style="isolation:isolate" viewBox="0 0 1024 1024" width="{{ include.width }}" height="{{ include.height }}" aria-hidden="true"><defs><clipPath id="_clipPath_cWuZReMIUg8DbOoCmQsmGo83uKdsBPmo"><rect width="1024" height="1024"/></clipPath></defs><g clip-path="url(#_clipPath_cWuZReMIUg8DbOoCmQsmGo83uKdsBPmo)"><path d=" M 512 0.043 C 229.28 0.043 0 229.236 0 512 C 0 794.764 229.323 1024 512 1024 C 794.72 1024 1024 794.72 1024 512 C 1024 229.28 794.72 0 512 0 L 512 0.043 Z  M 618.622 793.55 C 592.27 803.866 571.249 811.84 555.515 817.258 C 537.858 822.972 519.373 825.711 500.818 825.363 C 469.005 825.363 444.126 817.562 426.313 802.002 C 408.716 786.615 399.917 766.808 399.917 742.753 C 399.917 733.435 400.611 723.986 401.954 714.321 C 403.125 704.482 405.335 693.647 408.196 681.294 L 441.222 564.834 C 444.126 553.652 446.64 543.163 448.677 533.194 C 450.552 524.154 451.51 514.948 451.538 505.715 C 451.538 490.979 448.504 480.49 442.436 474.769 C 436.151 468.831 424.449 465.927 407.199 465.927 C 398.321 466.017 389.497 467.33 380.977 469.828 C 373.217 472.142 365.528 474.686 357.919 477.456 L 366.717 441.569 C 387.066 433.227 407.742 425.708 428.697 419.031 C 446.738 413.028 465.596 409.841 484.608 409.583 C 516.248 409.583 540.779 417.384 557.856 432.597 C 574.976 447.854 583.601 467.791 583.601 492.193 C 583.601 497.264 583.124 506.235 581.911 518.935 C 580.872 530.868 578.666 542.67 575.323 554.172 L 542.469 670.329 C 539.533 680.81 537.103 691.427 535.188 702.142 C 533.476 711.079 532.462 720.136 532.154 729.23 C 532.154 744.617 535.535 755.279 542.469 760.87 C 549.231 766.505 561.28 769.192 578.357 769.192 C 586.332 769.192 595.26 767.805 605.446 765.118 C 612.902 763.177 620.203 760.685 627.29 757.663 L 618.622 793.55 Z  M 612.727 322.032 C 597.843 336.099 578.028 343.757 557.553 343.356 C 536.055 343.356 517.418 336.248 502.031 322.032 C 487.189 309.008 478.769 290.156 478.973 270.411 C 478.973 250.257 486.775 232.834 502.031 218.401 C 516.991 204.24 536.914 196.52 557.509 196.903 C 579.05 196.903 597.514 204.055 612.727 218.444 C 628.157 232.834 635.742 250.257 635.742 270.411 C 635.742 290.565 628.157 307.815 612.77 322.032 L 612.727 322.032 Z " fill="currentColor"/></g></svg>
