<svg xmlns="http://www.w3.org/2000/svg" xmlns:xlink="http://www.w3.org/1999/xlink" style="isolation:isolate" viewBox="0 0 1024 1024" width="{{ include.width }}" height="{{ include.height }}" aria-hidden="true"><defs><clipPath id="_clipPath_8LCNAl4XtA1QrNFv77HWb5wUPEf53Ned"><rect width="1024" height="1024"/></clipPath></defs><g clip-path="url(#_clipPath_8LCNAl4XtA1QrNFv77HWb5wUPEf53Ned)"><path d=" M 752.736 0.054 C 747.172 0.054 741.162 2.569 736.71 7.021 L 157.991 585.741 C 155.765 587.989 153.829 589.636 153.829 594.087 L 2.204 994.739 C -2.248 1001.417 0.379 1010.298 7.079 1016.998 C 11.508 1021.427 15.67 1023.942 22.37 1023.942 C 24.641 1023.942 26.978 1024.12 31.407 1021.85 L 432.059 870.226 C 434.329 867.955 438.848 868.311 441.118 866.041 L 476.576 830.583 L 1017.055 289.414 C 1021.485 282.736 1024 278.018 1024 271.318 C 1024 264.64 1021.485 260.456 1017.033 256.026 L 768.028 6.999 C 763.576 2.569 758.279 0.054 752.714 0.054 L 752.736 0.054 Z  M 202.508 605.217 C 213.637 627.475 209.297 651.982 200.438 671.992 C 195.986 680.851 200.616 692.581 209.475 697.011 C 218.356 703.71 229.218 701.462 235.918 697.011 C 251.476 685.881 309.371 659.015 336.081 687.974 C 362.769 714.684 340.933 770.33 329.804 788.137 C 323.126 794.836 323.126 805.721 329.804 814.58 C 336.504 821.257 345.296 825.887 354.155 823.616 C 383.113 814.758 405.371 819.165 420.93 823.616 L 411.893 832.653 L 164.268 925.182 L 100.275 859.074 L 193.493 614.231 L 202.508 605.217 Z " fill="currentColor"/></g></svg>
