<svg xmlns="http://www.w3.org/2000/svg" xmlns:xlink="http://www.w3.org/1999/xlink" style="isolation:isolate" viewBox="0 0 1024 1024" width="{{ include.width }}" height="{{ include.height }}" aria-hidden="true"><defs><clipPath id="_clipPath_RDcWWt575Tl4DcNgGXcPPZKmtvcECofr"><rect width="1024" height="1024"/></clipPath></defs><g clip-path="url(#_clipPath_RDcWWt575Tl4DcNgGXcPPZKmtvcECofr)"><g><path d=" M 724.992 477.184 C 724.992 493.568 733.164 501.76 745.472 501.76 C 761.856 501.76 778.24 483.328 782.336 458.752 L 786.432 419.84 C 782.336 419.84 778.24 417.792 774.124 417.792 C 745.472 417.792 724.992 444.416 724.992 477.184 Z " fill="transparent"/><path d=" M 962.56 112.64 L 61.44 112.64 C 27.566 112.64 0 140.206 0 174.08 L 0 849.92 C 0 883.794 27.566 911.36 61.44 911.36 L 184.32 911.36 C 195.631 911.36 204.8 902.191 204.8 890.88 L 204.8 860.16 C 192.512 849.92 184.32 835.584 184.32 819.2 C 184.32 790.528 206.848 768 235.52 768 C 264.192 768 286.72 790.528 286.72 819.2 C 286.72 835.584 278.528 849.92 266.24 860.16 L 266.24 890.88 C 266.24 902.191 275.409 911.36 286.72 911.36 L 737.28 911.36 C 748.591 911.36 757.76 902.191 757.76 890.88 L 757.76 860.16 C 745.472 849.92 737.28 835.584 737.28 819.2 C 737.28 790.528 759.808 768 788.48 768 C 817.152 768 839.68 790.528 839.68 819.2 C 839.68 835.584 831.488 849.92 819.2 860.16 L 819.2 890.88 C 819.2 902.191 828.369 911.36 839.68 911.36 L 962.56 911.36 C 996.434 911.36 1024 883.794 1024 849.92 L 1024 174.08 C 1024 140.206 996.434 112.64 962.56 112.64 Z  M 143.36 665.6 C 149.504 573.44 270.336 587.776 290.816 540.672 L 290.816 497.644 C 282.624 493.548 268.288 468.972 266.24 448.492 C 260.096 448.492 249.856 442.348 247.808 419.82 C 245.76 407.532 251.904 401.388 256 399.34 C 235.52 323.564 247.808 258.028 337.92 255.98 C 360.448 255.98 378.88 262.124 385.024 274.412 C 450.56 282.604 432.128 370.668 421.888 399.34 C 425.984 401.388 432.128 407.532 430.08 419.82 C 425.984 442.348 417.792 448.492 411.648 448.492 C 409.6 468.972 397.312 493.548 389.12 497.644 C 389.12 514.028 387.072 524.268 389.12 540.672 C 405.504 587.776 526.336 573.44 532.48 665.6 L 143.36 665.6 Z  M 821.248 534.528 C 800.768 534.528 786.453 524.288 784.384 503.808 C 770.048 524.288 751.616 534.528 729.088 534.528 C 702.464 534.528 681.984 514.048 681.984 481.28 C 681.984 430.08 720.896 385.024 782.336 385.024 C 800.748 385.024 821.228 389.12 833.536 395.264 L 821.248 471.04 C 817.173 495.616 819.2 505.856 831.488 505.856 C 849.92 505.856 872.448 483.328 872.448 436.224 C 872.448 382.976 837.653 342.016 772.116 342.016 C 706.58 342.016 651.284 391.168 651.284 471.04 C 651.284 540.672 696.34 579.584 759.829 579.584 C 782.377 579.584 804.884 575.488 821.269 567.296 L 825.364 589.824 C 798.72 600.064 776.192 604.16 747.52 604.16 C 675.84 604.16 614.4 555.008 614.4 475.136 C 614.4 391.168 677.888 317.44 772.096 317.44 C 847.872 317.44 901.12 366.592 901.12 436.224 C 901.12 497.664 866.304 534.528 821.248 534.528 Z " fill="currentColor"/></g></g></svg>
