<svg xmlns="http://www.w3.org/2000/svg" xmlns:xlink="http://www.w3.org/1999/xlink" style="isolation:isolate" viewBox="0 0 1024 1024" width="{{ include.width }}" height="{{ include.height }}" aria-hidden="true"><defs><clipPath id="_clipPath_eT9yOgiEPLlvuYPUxPqUf6uVZrwradIa"><rect width="1024" height="1024"/></clipPath></defs><g clip-path="url(#_clipPath_eT9yOgiEPLlvuYPUxPqUf6uVZrwradIa)"><path d=" M 512 13.559 C 229.218 13.559 0 242.463 0 524.614 C 0.15 744.841 141.175 940.277 350.129 1009.833 C 375.729 1014.48 393.846 988.329 393.846 968.636 C 393.846 956.663 394.161 942.17 393.846 899.713 C 251.353 930.433 206.769 830.79 206.769 830.79 C 183.375 771.713 155.097 754.778 155.097 754.778 C 108.623 723.113 158.484 724.058 158.484 724.058 C 209.841 727.445 236.308 771.713 236.308 771.713 C 275.692 840.636 364.623 833.941 393.846 820.944 C 393.846 789.594 397.233 766.751 405.819 752.336 C 244.972 723.979 157.223 631.031 157.538 502.48 C 157.854 426.468 184.005 367.391 226.462 323.674 C 208.03 300.358 195.348 220.329 233.236 171.098 C 328.31 171.098 384.945 239.706 384.945 239.706 C 384.945 239.706 429.529 220.329 511.764 220.329 C 594.156 220.329 638.425 238.761 638.425 238.761 C 638.425 238.761 695.375 171.098 790.449 171.098 C 828.258 220.329 815.655 300.279 800.926 322.177 C 841.57 364.949 866.462 424.026 866.462 502.48 C 866.462 631.11 779.028 724.058 618.496 752.021 C 628.578 767.381 630.154 788.964 630.154 820.944 L 630.154 968.636 C 630.154 988.329 648.034 1014.795 674.186 1009.833 C 883.016 940.167 1023.895 744.758 1024 524.614 C 1024 242.463 794.782 13.559 512 13.559 Z " fill="currentColor"/></g></svg>
