<svg xmlns="http://www.w3.org/2000/svg" xmlns:xlink="http://www.w3.org/1999/xlink" style="isolation:isolate" viewBox="0 0 1024 1024" width="{{ include.width }}" height="{{ include.height }}" aria-hidden="true"><defs><clipPath id="_clipPath_iTYnQNNXVewpmMFrJV5S4XHorA9glRaV"><rect width="1024" height="1024"/></clipPath></defs><g clip-path="url(#_clipPath_iTYnQNNXVewpmMFrJV5S4XHorA9glRaV)"><g><path d=" M 1024 881.778 C 1024 960.325 960.325 1024 881.778 1024 L 142.222 1024 C 63.675 1024 0 960.325 0 881.778 L 0 142.222 C 0 63.675 63.675 0 142.222 0 L 881.778 0 C 960.325 0 1024 63.675 1024 142.222 L 1024 881.778 Z " fill="none"/><g><rect x="12" y="303.667" width="208.333" height="708.333" transform="matrix(1,0,0,1,0,0)" fill="currentColor"/><path d=" M 115.542 220.333 L 114.375 220.333 C 52.208 220.333 12 174 12 116.125 C 12 57 53.458 12 116.75 12 C 180.125 12 219.167 57 220.333 116.125 C 220.333 173.958 180.125 220.333 115.542 220.333 Z  M 1012 1012 L 803.667 1012 L 803.667 632.875 C 803.667 541.292 752.625 478.792 670.667 478.792 C 608.125 478.792 574.292 520.958 557.875 561.708 C 551.875 576.292 553.667 616.625 553.667 637 L 553.667 1012 L 345.333 1012 L 345.333 303.667 L 553.667 303.667 L 553.667 412.667 C 583.708 366.167 630.75 303.667 751.083 303.667 C 900.167 303.667 1011.958 397.417 1011.958 606.75 L 1012 1012 Z " fill="currentColor"/></g></g></g></svg>
