<svg xmlns="http://www.w3.org/2000/svg" xmlns:xlink="http://www.w3.org/1999/xlink" style="isolation:isolate" viewBox="0 0 1024 1024" width="{{ include.width }}" height="{{ include.height }}" aria-hidden="true"><defs><clipPath id="_clipPath_vif9AU70xUhVtmJ50vTCSHMQeT4LC6sn"><rect width="1024" height="1024"/></clipPath></defs><g clip-path="url(#_clipPath_vif9AU70xUhVtmJ50vTCSHMQeT4LC6sn)"><path d=" M 426.667 42.667 C 377.344 42.667 341.333 83.84 341.333 128 L 341.333 213.333 L 426.667 213.333 L 426.667 128 L 597.333 128 L 597.333 213.333 L 682.667 213.333 L 682.667 128 C 682.667 78.677 641.493 42.667 597.333 42.667 L 426.667 42.667 Z  M 0 256 L 0 981.333 L 1024 981.333 L 1024 256 L 0 256 Z  M 533.333 341.333 C 592.981 341.333 640 388.352 640 448 C 640 507.648 592.981 554.667 533.333 554.667 C 504.967 554.92 477.688 543.763 457.629 523.704 C 437.57 503.645 426.414 476.367 426.667 448 C 426.667 388.352 473.685 341.333 533.333 341.333 Z  M 827.989 612.011 C 841.643 612.864 854.997 623.147 861.355 635.989 L 891.989 717.312 C 900.523 734.336 887.68 755.499 870.656 763.989 L 635.989 853.333 C 619.008 861.867 597.845 848.981 589.312 832 L 558.677 750.677 C 550.144 733.653 562.987 712.491 580.011 704 L 814.677 614.656 C 818.79 612.576 823.394 611.661 827.989 612.011 Z " fill="currentColor"/></g></svg>
