<svg xmlns="http://www.w3.org/2000/svg" xmlns:xlink="http://www.w3.org/1999/xlink" style="isolation:isolate" viewBox="0 0 1024 1024" width="{{ include.width }}" height="{{ include.height }}" aria-hidden="true"><defs><clipPath id="_clipPath_nwujbw9aWgrXHPjmP1DCs9eddyheZRNy"><rect width="1024" height="1024"/></clipPath></defs><g clip-path="url(#_clipPath_nwujbw9aWgrXHPjmP1DCs9eddyheZRNy)"><path d=" M 1024 194.514 C 986.563 211.275 946.821 222.321 906.105 227.284 L 905.721 226.58 C 948.9 200.592 980.95 159.56 995.71 111.373 C 954.45 135.837 909.32 153.088 862.262 162.384 C 797.236 92.822 693.561 75.683 609.607 120.617 C 525.653 165.55 482.41 261.322 504.224 354.012 C 335.28 345.475 177.89 265.663 71.172 134.414 C 52.508 166.499 42.701 202.966 42.755 240.085 C 42.685 310.335 77.757 375.964 136.201 414.944 C 102.856 413.869 70.249 404.851 41.091 388.638 L 41.091 391.262 C 41.085 491.289 111.572 577.463 209.613 597.291 C 178.682 605.705 146.237 606.931 114.759 600.876 C 142.288 686.467 221.166 745.105 311.059 746.805 C 223.047 815.974 111.125 847.271 0 833.786 C 96.024 895.57 207.821 928.369 322.004 928.256 C 708.46 928.256 919.738 608.108 919.738 330.459 C 919.738 321.37 919.545 312.281 919.161 303.257 C 960.283 273.517 995.782 236.695 1024 194.514 Z " fill="currentColor"/></g></svg>
