<svg width="100" height="100" viewBox="0 0 100 100" fill="none" xmlns="http://www.w3.org/2000/svg">
<g clip-path="url(#clip0_26_2)">
<circle cx="50" cy="50" r="48.5" fill="#0A0A0A" stroke="#0A0A0A" stroke-width="3"/>
<path d="M18.1 61.2C15.1667 61.2 13.7 58.9 13.7 54.3C13.7 52.1 14.1 50 14.9 48C14.9 48 14.6333 48.4 14.1 49.2C13.6333 50 12.9333 50.9667 12 52.1C11.9333 52.3 11.7 52.4 11.3 52.4C11.1667 52.4 11.0667 52.3 11 52.1C10.9333 51.9 10.9 51.7333 10.9 51.6C10.9 51.4 11.1333 51 11.6 50.4C13.0667 48.4667 14.3333 46.7667 15.4 45.3C16.4667 43.8333 17.6333 42.4667 18.9 41.2C19.5 40.6 20.1667 40.3 20.9 40.3C21.7667 40.3 22.2 40.6667 22.2 41.4C22.2 41.2667 21.9667 41.6667 21.5 42.6C21.0333 43.5333 20.3 45 19.3 47C17.4333 51.1333 16.5 54.2667 16.5 56.4C16.5 58.1333 17.2333 59 18.7 59C20.1 59 21.5333 58.3667 23 57.1C24.4667 55.7667 25.7667 54.1333 26.9 52.2C28.1 50.2667 28.9667 48.3667 29.5 46.5C29.5 46.2333 29.4333 45.8333 29.3 45.3C29.2333 44.7667 29.1333 44.1 29 43.3C28.8 42.1 28.7 41.0667 28.7 40.2C28.7 37.3333 29.9 35.4667 32.3 34.6C32.8333 34.4 33.2333 34.3 33.5 34.3C34.5 34.3 35 35.1667 35 36.9C35 39.7667 34.1333 42.8667 32.4 46.2C32.4 48.9333 33.0333 51.2333 34.3 53.1C35.6333 54.9 37.2333 55.8 39.1 55.8C40.4333 55.8 41.8 55.3667 43.2 54.5C44.6667 53.6333 46.1 52.2667 47.5 50.4C47.6333 50.2667 47.8333 50.2 48.1 50.2C48.3 50.2 48.4 50.4 48.4 50.8C48.4 51.2 48.2333 51.6333 47.9 52.1C47.0333 53.3 45.7333 54.5 44 55.7C42.3333 56.8333 40.5333 57.4 38.6 57.4C36.7333 57.4 35 56.6667 33.4 55.2C31.8667 53.6667 30.8333 51.6667 30.3 49.2C30.0333 50.2 29.5 51.4 28.7 52.8C27.9 54.2 26.8333 55.6 25.5 57C24.0333 58.5333 22.6667 59.6333 21.4 60.3C20.1333 60.9 19.0333 61.2 18.1 61.2ZM62.5375 62.5C61.9375 62.5 61.4708 62 61.1375 61V59.1C61.1375 50.8333 60.0708 46.7 57.9375 46.7C56.5375 46.7 54.4042 48.9667 51.5375 53.5C50.7375 54.7 49.9375 55.9 49.1375 57.1C48.4042 58.3 47.6708 59.5 46.9375 60.7C46.5375 60.8333 46.2375 60.9 46.0375 60.9C45.3708 60.9 45.0375 60.4 45.0375 59.4V59.1L46.2375 55.1C47.6375 50.9 48.6708 47.5667 49.3375 45.1C50.0042 42.5667 50.3375 40.9 50.3375 40.1C50.3375 39.8333 50.3042 39.6667 50.2375 39.6C51.5708 38.4 52.8375 37.8 54.0375 37.8C54.6375 37.8 54.8708 37.9667 54.7375 38.3L52.9375 48.4C53.6042 47.4667 54.9708 46.3 57.0375 44.9C58.1042 44.1667 59.0042 43.6333 59.7375 43.3C60.5375 42.9667 61.1708 42.8 61.6375 42.8C63.7042 42.8 64.8708 46.9667 65.1375 55.3C65.8708 53.9667 66.8375 52.3 68.0375 50.3C69.3042 48.3 70.7708 46 72.4375 43.4C73.3708 42.1333 74.3708 41.5 75.4375 41.5C76.4375 41.5 77.0375 42.1333 77.2375 43.4C77.4375 46 77.6375 48.4333 77.8375 50.7C78.0375 52.9 78.4708 54.6667 79.1375 56C79.8042 57.3333 80.9375 58.0333 82.5375 58.1C84.5375 58.1 86.5042 57.3667 88.4375 55.9C90.4375 54.3667 92.2375 52.5333 93.8375 50.4C94.1708 49.8667 94.5042 49.6 94.8375 49.6C95.0375 49.6 95.1375 49.8667 95.1375 50.4C95.1375 50.5333 95.0042 50.8333 94.7375 51.3C94.4708 51.7 94.2708 51.9667 94.1375 52.1C93.0042 53.7667 91.6708 55.4 90.1375 57C88.6708 58.5333 87.1042 59.8 85.4375 60.8C83.7708 61.7333 82.1042 62.2 80.4375 62.2C77.9708 62.2 76.1708 60.8667 75.0375 58.2C73.9042 55.5333 73.2042 51.7667 72.9375 46.9C71.5375 48.1667 70.0375 50.4333 68.4375 53.7C67.4375 55.5667 66.6042 57.1333 65.9375 58.4C65.2708 59.6 64.7708 60.4667 64.4375 61C63.7708 62 63.1375 62.5 62.5375 62.5Z" fill="white"/>
</g>
<defs>
<clipPath id="clip0_26_2">
<rect width="100" height="100" fill="white"/>
</clipPath>
</defs>
</svg>
